<svg width="1062" height="306" viewBox="0 0 1062 306" fill="none" xmlns="http://www.w3.org/2000/svg">
<path d="M15.5543 3.17773L224.726 3.17782C234.394 3.17782 239.141 14.9722 232.178 21.6907L168.243 83.3796C165.243 86.2738 167.539 91.3384 171.687 90.9791L223.011 86.5355C228.031 86.101 232.344 90.0655 232.344 95.1127V246.907C232.344 255.514 225.382 262.491 216.79 262.491H22.5639C8.04663 262.491 0.919386 244.777 11.3775 234.69L124.792 125.291C127.792 122.397 125.497 117.331 121.348 117.691L23.3314 126.177C10.7843 127.264 -5.50499e-07 117.352 0 104.734L3.75084e-06 18.7617C4.12636e-06 10.1549 6.96393 3.17772 15.5543 3.17773Z" fill="black"/>
<path d="M918.657 288.002L949.408 203.584L949.999 228.42L880.366 57.3662H917.474L966.854 183.92H957.391L1005.44 57.3662H1041.07L952.069 288.002H918.657Z" fill="black"/>
<path d="M787.883 221.473C776.351 221.473 766.593 219.304 758.61 214.968C750.627 210.533 744.564 204.669 740.424 197.375C736.383 190.081 734.364 182.048 734.364 173.276C734.364 165.588 735.645 158.689 738.207 152.578C740.77 146.368 744.712 141.046 750.035 136.611C755.357 132.077 762.257 128.381 770.733 125.523C777.139 123.453 784.631 121.58 793.204 119.904C801.878 118.229 811.242 116.701 821.295 115.321C831.447 113.843 842.042 112.266 853.081 110.59L840.366 117.835C840.465 106.796 838.001 98.6644 832.975 93.4406C827.948 88.2169 819.471 85.6049 807.545 85.6049C800.35 85.6049 793.402 87.2805 786.699 90.6316C779.997 93.9828 775.316 99.7486 772.655 107.929L740.129 97.7281C744.071 84.2252 751.563 73.3832 762.6 65.2026C773.739 57.022 788.72 52.9316 807.545 52.9316C821.738 52.9316 834.206 55.2479 844.949 59.8804C855.792 64.5127 863.823 72.102 869.047 82.648C871.905 88.2662 873.632 94.0319 874.222 99.9457C874.814 105.761 875.109 112.118 875.109 119.017V217.036H843.915V182.442L849.089 188.06C841.894 199.593 833.466 208.069 823.808 213.489C814.248 218.811 802.272 221.473 787.883 221.473ZM794.979 193.087C803.061 193.087 809.96 191.658 815.677 188.8C821.394 185.941 825.926 182.442 829.278 178.302C832.728 174.163 835.043 170.27 836.228 166.623C838.1 162.089 839.135 156.914 839.331 151.099C839.628 145.186 839.775 140.405 839.775 136.759L850.716 140.011C839.972 141.687 830.757 143.165 823.07 144.446C815.382 145.728 808.778 146.96 803.257 148.142C797.738 149.227 792.86 150.459 788.621 151.839C784.481 153.317 780.984 155.042 778.125 157.013C775.267 158.984 773.049 161.251 771.473 163.814C769.993 166.376 769.255 169.382 769.255 172.832C769.255 176.775 770.24 180.273 772.211 183.33C774.182 186.285 777.04 188.652 780.786 190.425C784.631 192.2 789.361 193.087 794.979 193.087Z" fill="black"/>
<path d="M556.976 217.038L508.189 57.0713L543.078 57.367L574.274 159.822L605.912 57.367H635.924L667.415 159.822L698.756 57.367H733.648L684.86 217.038H657.065L620.843 107.19L584.77 217.038H556.976Z" fill="black"/>
<path d="M412.114 221.472C396.542 221.472 382.496 218.761 369.979 213.34C357.561 207.92 347.31 200.182 339.228 190.129C331.245 179.977 326.169 167.952 324 154.055L360.961 148.437C364.115 161.053 370.57 170.811 380.327 177.71C390.184 184.61 401.519 188.059 414.331 188.059C421.922 188.059 429.066 186.876 435.769 184.511C442.471 182.146 447.892 178.696 452.032 174.162C456.269 169.628 458.388 164.059 458.388 157.456C458.388 154.499 457.897 151.788 456.91 149.324C455.924 146.762 454.446 144.495 452.475 142.523C450.603 140.552 448.139 138.778 445.082 137.201C442.127 135.526 438.676 134.097 434.734 132.914L379.737 116.651C375.005 115.271 369.88 113.448 364.361 111.181C358.94 108.815 353.765 105.612 348.838 101.571C344.009 97.4315 340.016 92.2077 336.863 85.8998C333.806 79.4932 332.28 71.6083 332.28 62.2449C332.28 48.5447 335.729 37.0624 342.628 27.7976C349.627 18.4342 358.99 11.4362 370.719 6.80386C382.545 2.17143 395.654 -0.095486 410.044 0.00308034C424.631 0.101635 437.641 2.61497 449.075 7.54306C460.508 12.3726 470.068 19.4198 477.756 28.6846C485.444 37.9494 490.865 49.1362 494.019 62.2449L455.728 68.8979C454.151 61.4072 451.094 55.0499 446.562 49.8262C442.127 44.5037 436.657 40.4627 430.151 37.703C423.745 34.9432 416.894 33.4649 409.601 33.2678C402.505 33.1691 395.901 34.2533 389.79 36.5202C383.778 38.6887 378.898 41.8426 375.154 45.9823C371.507 50.1217 369.684 54.9513 369.684 60.4708C369.684 65.6946 371.261 69.982 374.414 73.3331C377.568 76.5857 381.461 79.1975 386.095 81.1688C390.825 83.0414 395.606 84.6184 400.435 85.8998L438.577 96.5445C443.801 97.9243 449.665 99.7971 456.17 102.162C462.676 104.528 468.934 107.83 474.946 112.068C480.96 116.306 485.887 121.875 489.731 128.774C493.673 135.674 495.644 144.446 495.644 155.09C495.644 166.129 493.33 175.838 488.696 184.216C484.162 192.494 478.003 199.393 470.216 204.914C462.429 210.433 453.51 214.573 443.457 217.332C433.501 220.091 423.054 221.472 412.114 221.472Z" fill="black"/>
</svg>
